<svg width="302" height="40" viewBox="0 0 302 40" fill="none" xmlns="http://www.w3.org/2000/svg">
<g clip-path="url(#clip0_2130_8)">
<path d="M7.57259 40.0001C6.07845 40.0001 4.76465 39.7168 3.63117 39.15C2.49769 38.5833 1.62182 37.7332 1.00356 36.5997C0.385302 35.4147 0.0761719 33.9721 0.0761719 32.2719V23.7708C0.0761719 22.1221 0.333781 20.6795 0.848998 19.443C1.41574 18.1549 2.29161 17.1502 3.47661 16.4289C4.66161 15.6561 6.1815 15.2697 8.03628 15.2697H24.5748V11.251C24.5748 10.3751 24.2914 9.6796 23.7247 9.16438C23.1579 8.64916 22.3593 8.39155 21.3289 8.39155H1.93095V0.0450306H23.8019C26.7902 0.0450306 29.0572 0.817857 30.6028 2.36351C32.1485 3.85764 32.9213 6.09883 32.9213 9.0871V40.0001H7.57259ZM21.3289 31.8082C21.9987 31.8082 22.5654 31.6794 23.0291 31.4218C23.4928 31.1126 23.8535 30.7005 24.1111 30.1853C24.3687 29.67 24.4975 29.0775 24.4975 28.4078V23.0753H11.0503C10.2775 23.0753 9.63345 23.3071 9.11824 23.7708C8.65454 24.183 8.42269 24.7497 8.42269 25.471V29.3351C8.42269 30.1595 8.62878 30.7777 9.04095 31.1899C9.50465 31.6021 10.1229 31.8082 10.8957 31.8082H21.3289ZM49.5836 40.0001C47.4712 40.0001 45.6937 39.6652 44.2511 38.9955C42.86 38.2742 41.8038 37.218 41.0825 35.8269C40.3612 34.3843 40.0005 32.581 40.0005 30.4171V9.85992C40.0005 6.76862 40.8249 4.37297 42.4736 2.67264C44.1223 0.9209 46.4923 0.0450306 49.5836 0.0450306H63.2626C66.2508 0.0450306 68.5951 0.895139 70.2953 2.59536C71.9955 4.24405 72.8456 6.61405 72.8456 9.70536V24.0026H43.0145V15.9652H64.4218V11.4056C64.4218 10.4267 64.1642 9.65383 63.649 9.0871C63.1338 8.46883 62.361 8.1597 61.3305 8.1597H51.6702C50.6398 8.1597 49.8412 8.4946 49.2744 9.16438C48.7077 9.78264 48.4243 10.607 48.4243 11.6374V28.6396C48.4243 29.2579 48.5274 29.7988 48.7335 30.2625C48.9911 30.7262 49.3517 31.0869 49.8154 31.3445C50.2791 31.6021 50.8201 31.7309 51.4383 31.7309H72.8456V40.0001H49.5836ZM80.6976 8.63123C80.6976 3.9671 84.4651 0.178835 89.1292 0.153183L108.752 0.0450306V8.39155H94.3766C92.7794 8.39155 91.4914 8.90677 90.5125 9.9372C89.5851 10.9676 89.1214 12.4102 89.1214 14.265V40.0001H80.6976V8.63123ZM122.799 40.0001C119.606 40.0001 117.132 39.2273 115.381 37.6817C113.681 36.136 112.83 33.8175 112.83 30.7262V9.55079C112.83 6.51101 113.681 4.16677 115.381 2.51818C117.081 0.86927 119.554 0.0449219 122.799 0.0449219H135.629C138.771 0.0449219 141.219 0.895031 142.97 2.59525C144.773 4.24394 145.675 6.56242 145.675 9.55068V30.7261C145.675 33.6629 144.773 35.9556 142.97 37.6043C141.167 39.2014 138.72 40 135.629 40H122.799V40.0001ZM134.006 31.7309C134.675 31.7309 135.242 31.6021 135.706 31.3445C136.17 31.0354 136.53 30.6489 136.787 30.1853C137.045 29.7216 137.174 29.1806 137.174 28.5623V11.7147C137.174 10.6327 136.891 9.8084 136.324 9.24166C135.757 8.67492 134.984 8.39166 134.006 8.39166H124.422C123.392 8.39166 122.594 8.67492 122.027 9.24166C121.511 9.8084 121.254 10.6327 121.254 11.7147V28.5623C121.254 29.1291 121.383 29.67 121.641 30.1853C121.898 30.6489 122.259 31.0354 122.722 31.3445C123.237 31.6021 123.83 31.7309 124.5 31.7309H134.006ZM149.548 0.0450306H158.436L169.101 30.2625H166.86L177.447 0.0451393H186.335L171.96 40H163.846L149.548 0.0450306ZM192.621 0.0450306H201.045V40.0001H192.621V0.0450306ZM218.488 40.0001C216.375 40.0001 214.598 39.6652 213.156 38.9955C211.765 38.2742 210.708 37.218 209.987 35.8269C209.266 34.3843 208.905 32.581 208.905 30.4171V9.85992C208.905 6.76862 209.73 4.37297 211.379 2.67264C213.026 0.9209 215.397 0.0450306 218.488 0.0450306H232.168C235.156 0.0450306 237.499 0.895139 239.2 2.59536C240.9 4.24405 241.75 6.61405 241.75 9.70536V24.0026H211.919V15.9652H233.327V11.4056C233.327 10.4267 233.069 9.65383 232.554 9.0871C232.038 8.46883 231.266 8.1597 230.235 8.1597H220.575C219.545 8.1597 218.746 8.4946 218.179 9.16438C217.612 9.78264 217.329 10.607 217.329 11.6374V28.6396C217.329 29.2579 217.432 29.7988 217.638 30.2625C217.896 30.7262 218.257 31.0869 218.72 31.3445C219.184 31.6021 219.724 31.7309 220.343 31.7309H241.75V40.0001H218.488ZM245.623 0.0450306H254.28L263.862 30.6489H260.54L269.968 0.0450306H277L286.583 30.6489H283.646L292.688 0.0450306H301.499L289.134 40.0001H281.019L271.513 10.1691H275.609L266.104 40.0001H257.988L245.623 0.0450306Z" fill="white"/>
</g>
<defs>
<clipPath id="clip0_2130_8">
<rect width="301.522" height="40" fill="white"/>
</clipPath>
</defs>
</svg>
