<svg width="150" height="33" viewBox="0 0 150 33" fill="none" xmlns="http://www.w3.org/2000/svg">
<mask id="mask0_81_74" style="mask-type:luminance" maskUnits="userSpaceOnUse" x="0" y="0" width="33" height="33">
<path d="M32.8994 0.0349121H0V33H32.8994V0.0349121Z" fill="white"/>
</mask>
<g mask="url(#mask0_81_74)">
<path d="M24.3149 0.0349121H8.58447C3.8434 0.0349121 0 3.88598 0 8.63652V24.3984C0 29.1489 3.8434 33 8.58447 33H24.3149C29.056 33 32.8994 29.1489 32.8994 24.3984V8.63652C32.8994 3.88598 29.056 0.0349121 24.3149 0.0349121Z" fill="#6102DB"/>
<path d="M15.1052 15.7412H6.47092C6.27438 15.7412 6.11487 15.5813 6.11487 15.3844V13.2417C6.11487 13.0447 6.27438 12.8849 6.47092 12.8849H12.704V6.73286C12.704 6.53593 12.8635 6.3761 13.0601 6.3761H15.1052C15.3018 6.3761 15.4613 6.53593 15.4613 6.73286V15.3844C15.4613 15.5813 15.3018 15.7412 15.1052 15.7412Z" fill="white"/>
<path d="M17.7942 17.7219H26.4285C26.625 17.7219 26.7845 17.8818 26.7845 18.0787V20.2214C26.7845 20.4184 26.625 20.5782 26.4285 20.5782H20.1954V26.7302C20.1954 26.9272 20.0359 27.087 19.8393 27.087H17.7942C17.5976 27.087 17.4381 26.9272 17.4381 26.7302V18.0787C17.4381 17.8818 17.5976 17.7219 17.7942 17.7219Z" fill="white"/>
</g>
<path d="M136.414 23.0613C136.192 23.727 135.571 24.1758 134.872 24.1758C134.173 24.1758 133.553 23.7277 133.331 23.0634L129.216 10.74C129.154 10.5552 129.292 10.364 129.486 10.364H131.143C131.266 10.364 131.374 10.4418 131.413 10.5581L134.596 20.0002C134.693 20.2906 135.104 20.2899 135.201 19.9988L138.032 11.4971C138.258 10.8199 138.89 10.3633 139.602 10.3633C140.314 10.3633 140.944 10.8192 141.171 11.4957L144.013 19.9959C144.11 20.2871 144.521 20.2871 144.618 19.9959L147.761 10.5595C147.8 10.4432 147.908 10.3647 148.031 10.3647H149.715C149.909 10.3647 150.047 10.5559 149.985 10.7407L145.873 23.0563C145.649 23.7256 145.024 24.1765 144.321 24.1765C143.617 24.1765 142.994 23.7263 142.769 23.0577L139.882 14.4468C139.785 14.1557 139.374 14.1564 139.277 14.4468L136.411 23.0613H136.414Z" fill="black"/>
<path d="M110.17 10.3633H111.913C112.07 10.3633 112.198 10.491 112.198 10.6487V23.8904C112.198 24.0481 112.07 24.1758 111.913 24.1758H110.17C110.013 24.1758 109.885 24.0481 109.885 23.8904V10.6487C109.885 10.491 110.013 10.3633 110.17 10.3633Z" fill="black"/>
<path d="M103.138 22.7794C102.834 23.6178 102.04 24.1758 101.151 24.1758C100.263 24.1758 99.4694 23.6185 99.1661 22.7816L94.751 10.6237C94.7004 10.4839 94.8037 10.3362 94.9518 10.3362H96.9614C97.0511 10.3362 97.1316 10.3926 97.1622 10.4775L100.986 21.0448C101.04 21.1933 101.25 21.1933 101.303 21.0448L105.127 10.4775C105.158 10.3926 105.238 10.3362 105.328 10.3362H107.338C107.486 10.3362 107.59 10.4839 107.539 10.623L103.138 22.7794Z" fill="black"/>
<path d="M86.9036 24.5346C85.6367 24.5346 84.4803 24.2078 83.4342 23.5542C82.3974 22.9006 81.5663 22.0258 80.9425 20.9298C80.328 19.8246 80.0203 18.6052 80.0203 17.2694C80.0203 16.2562 80.1991 15.3129 80.5573 14.4381C80.9147 13.5541 81.4061 12.7806 82.0299 12.1177C82.6637 11.4456 83.3979 10.9204 84.2325 10.543C85.0678 10.1655 85.9579 9.97644 86.9036 9.97644C88.1697 9.97644 89.3219 10.3032 90.3587 10.9568C91.4055 11.6104 92.2358 12.4902 92.8504 13.5948C93.4749 14.7 93.7868 15.9244 93.7868 17.2687C93.7868 18.2727 93.6081 19.2117 93.2499 20.0864C92.8917 20.9612 92.3961 21.7347 91.763 22.4068C91.1392 23.0697 90.4093 23.5899 89.574 23.9673C88.7479 24.3448 87.8578 24.5339 86.9036 24.5339V24.5346ZM86.9036 22.2142C87.7659 22.2142 88.5414 21.9887 89.23 21.5371C89.9279 21.0768 90.4734 20.4739 90.8686 19.7275C91.2724 18.9726 91.4739 18.1528 91.4739 17.2687C91.4739 16.3847 91.2674 15.5377 90.8544 14.7828C90.4506 14.0279 89.9044 13.4242 89.2165 12.9733C88.5279 12.5223 87.7574 12.2961 86.9036 12.2961C86.0498 12.2961 85.265 12.5266 84.5771 12.9868C83.8885 13.4378 83.3423 14.0414 82.9386 14.7963C82.5348 15.5513 82.3333 16.3754 82.3333 17.2687C82.3333 18.1621 82.5398 19.0276 82.9528 19.7825C83.3658 20.5281 83.9206 21.1225 84.6184 21.5642C85.3156 21.9973 86.0775 22.2135 86.9036 22.2135V22.2142Z" fill="black"/>
<path d="M72.012 24.1758C71.8567 24.1758 71.7314 24.0502 71.7314 23.8947V12.6844C71.7314 11.4029 72.7668 10.364 74.0436 10.364H78.6367C78.7919 10.364 78.9173 10.4896 78.9173 10.6451V12.2235C78.9173 12.379 78.7919 12.5046 78.6367 12.5046H74.9921C74.468 12.5046 74.0436 12.9313 74.0436 13.4572V23.8947C74.0436 24.0502 73.9183 24.1758 73.763 24.1758H72.012Z" fill="black"/>
<path d="M64.2706 24.3313C63.038 24.6238 61.8381 24.5724 60.6695 24.1786C59.5102 23.7819 58.5004 23.1226 57.6409 22.2007C56.7885 21.2674 56.2088 20.1514 55.9012 18.8521C55.6683 17.8667 55.6249 16.907 55.7723 15.973C55.9176 15.0304 56.2174 14.1642 56.6717 13.375C57.1332 12.5744 57.7271 11.8944 58.4527 11.3343C59.1783 10.7742 60.0015 10.3846 60.9209 10.1663C61.9299 9.92653 62.9034 9.91368 63.8398 10.1263C64.7833 10.3282 65.64 10.7207 66.4105 11.3051C67.1896 11.8866 67.8397 12.6215 68.361 13.5106C68.6771 14.0393 68.9307 14.6087 69.1222 15.2174C69.3458 15.9316 68.8623 16.6423 68.1367 16.8142L59.0089 18.9805C58.7311 19.0462 58.5901 19.3558 58.7197 19.6098C58.9832 20.1286 59.3186 20.5817 59.7259 20.9677C60.2586 21.4657 60.8703 21.8175 61.5596 22.023C62.2582 22.2264 62.9838 22.2435 63.7365 22.0744C64.5405 21.8839 65.2191 21.505 65.7739 20.9377C66.2574 20.434 66.617 19.836 66.8541 19.1446C66.9154 18.9648 67.0806 18.8421 67.27 18.8414L68.8124 18.8378C69.1001 18.8371 69.3138 19.1104 69.2383 19.3894C68.9413 20.4846 68.4065 21.4686 67.6339 22.342C66.731 23.3509 65.6101 24.0145 64.2706 24.3327V24.3313ZM57.9734 17.2052L66.7075 15.1324C66.4582 14.3968 66.0879 13.9073 65.531 13.3864C64.972 12.857 64.3311 12.4788 63.6076 12.2533C62.8849 12.0272 62.1478 12.0036 61.398 12.182C60.6481 12.3604 60.0037 12.7072 59.4653 13.223C58.927 13.7389 58.5268 14.359 58.264 15.0839C58.0083 15.7975 57.8894 16.4125 57.9734 17.2067V17.2052Z" fill="black"/>
<path d="M45.9068 24.4448C44.6399 24.4448 43.4835 24.118 42.4374 23.4644C41.4006 22.8108 40.5695 21.936 39.9457 20.84C39.3305 19.7347 39.0235 18.5153 39.0235 17.1796C39.0235 16.1664 39.2023 15.2231 39.5605 14.3483C39.9187 13.4642 40.4093 12.6908 41.0331 12.0279C41.6662 11.3558 42.4004 10.8306 43.2357 10.4531C44.071 10.0757 44.9611 9.8866 45.9061 9.8866C47.1729 9.8866 48.3244 10.2134 49.3612 10.867C50.4073 11.5206 51.2383 12.4004 51.8529 13.5049C52.4767 14.6102 52.7893 15.8346 52.7893 17.1789C52.7893 18.1828 52.6106 19.1218 52.2524 19.9966C51.8942 20.8714 51.3986 21.6449 50.7655 22.317C50.1417 22.9799 49.4118 23.5 48.5765 23.8775C47.7504 24.255 46.8603 24.444 45.9054 24.444L45.9068 24.4448ZM45.9068 22.1244C46.7691 22.1244 47.5453 21.8989 48.2332 21.4472C48.9304 20.987 49.4766 20.3841 49.8718 19.6377C50.2756 18.8828 50.4778 18.0629 50.4778 17.1789C50.4778 16.2948 50.2713 15.4478 49.8583 14.6929C49.4545 13.938 48.9083 13.3351 48.2197 12.8834C47.5311 12.4325 46.7606 12.2063 45.9068 12.2063C45.053 12.2063 44.2682 12.4368 43.5803 12.897C42.8917 13.3479 42.3462 13.9516 41.9418 14.7065C41.538 15.4614 41.3358 16.2855 41.3358 17.1789C41.3358 18.0722 41.5423 18.9377 41.9553 19.6926C42.3683 20.4383 42.9238 21.0327 43.6209 21.4743C44.3181 21.9074 45.08 22.1236 45.9061 22.1236L45.9068 22.1244Z" fill="black"/>
<path d="M51.1963 9.8866H52.941C53.0977 9.8866 53.2251 10.0136 53.2258 10.1713L53.2643 24.3655C53.2643 24.5232 53.1368 24.6517 52.9794 24.6517H51.1764C51.019 24.6517 50.8915 24.524 50.8915 24.3655L50.9108 10.1713C50.9108 10.0136 51.0382 9.8866 51.1956 9.8866H51.1963Z" fill="black"/>
<path d="M109.756 7.02966C109.756 6.2405 110.393 5.60046 111.18 5.60046C111.967 5.60046 112.604 6.2405 112.604 7.02966C112.604 7.81883 111.966 8.45887 111.18 8.45887C110.394 8.45887 109.756 7.81883 109.756 7.02966Z" fill="black"/>
<path d="M123.255 24.4319C122.023 24.7244 120.823 24.673 119.654 24.2792C118.495 23.8824 117.485 23.2231 116.626 22.3013C115.773 21.368 115.194 20.252 114.886 18.9527C114.653 17.9673 114.61 17.0076 114.757 16.0736C114.902 15.131 115.202 14.2648 115.656 13.4756C116.118 12.675 116.712 11.995 117.437 11.4349C118.163 10.8748 118.986 10.4852 119.906 10.2669C120.915 10.0271 121.888 10.0143 122.824 10.2269C123.768 10.4288 124.625 10.8213 125.395 11.4057C126.174 11.9872 126.824 12.7221 127.346 13.6112C127.662 14.1399 127.915 14.7093 128.107 15.3179C128.33 16.0322 127.847 16.7429 127.121 16.9148L117.994 19.0811C117.716 19.1467 117.575 19.4564 117.704 19.7104C117.968 20.2292 118.303 20.6823 118.711 21.0683C119.243 21.5663 119.855 21.9181 120.544 22.1236C121.243 22.3269 121.969 22.3441 122.721 22.175C123.525 21.9845 124.204 21.6056 124.759 21.0383C125.242 20.5346 125.602 19.9366 125.839 19.2452C125.9 19.0654 126.065 18.9427 126.255 18.942L127.797 18.9384C128.085 18.9377 128.298 19.211 128.223 19.4899C127.926 20.5852 127.391 21.5692 126.619 22.4425C125.716 23.4515 124.595 24.1151 123.255 24.4333V24.4319ZM116.958 17.3058L125.692 15.233C125.443 14.4974 125.073 14.0079 124.516 13.487C123.957 12.9576 123.316 12.5794 122.592 12.3539C121.87 12.1277 121.132 12.1042 120.383 12.2826C119.633 12.461 118.988 12.8077 118.45 13.3236C117.912 13.8395 117.511 14.4596 117.249 15.1845C116.993 15.898 116.874 16.5131 116.958 17.3073V17.3058Z" fill="black"/>
</svg>
