<svg width="114" height="19" viewBox="0 0 114 19" fill="none" xmlns="http://www.w3.org/2000/svg">
<g clip-path="url(#clip0_8655_638)">
<mask id="mask0_8655_638" style="mask-type:alpha" maskUnits="userSpaceOnUse" x="0" y="0" width="114" height="19">
<path d="M40.6923 4.75H35.9741C34.6625 4.75 33.5989 5.7861 33.5989 7.06416V18.245C33.5989 18.4001 33.7276 18.5254 33.8871 18.5254H35.6859C35.8453 18.5254 35.9741 18.4001 35.9741 18.245V7.83483C35.9741 7.31037 36.4101 6.88483 36.9485 6.88483H40.6923C40.8518 6.88483 40.9805 6.75959 40.9805 6.60446V5.03037C40.9805 4.87524 40.8518 4.75 40.6923 4.75Z" fill="white"/>
<path d="M113.707 4.75142H111.977C111.852 4.75142 111.74 4.8297 111.7 4.94569L108.471 14.3567C108.372 14.6471 107.95 14.6471 107.85 14.3567L104.93 5.87933C104.697 5.20472 104.05 4.75 103.319 4.75C102.587 4.75 101.938 5.20543 101.706 5.88075L98.7978 14.3596C98.6983 14.6499 98.2762 14.6506 98.176 14.361L94.9069 4.94427C94.8667 4.82828 94.7555 4.75071 94.6297 4.75071H92.9274C92.7277 4.75071 92.5866 4.94142 92.6502 5.12573L96.8769 17.416C97.1051 18.0785 97.7415 18.5254 98.4598 18.5254C99.1782 18.5254 99.8161 18.0778 100.044 17.4138H100.041L102.985 8.82255C103.084 8.53292 103.507 8.53221 103.607 8.82255L106.572 17.4103C106.803 18.077 107.444 18.5261 108.166 18.5261C108.889 18.5261 109.531 18.0763 109.76 17.4088L113.985 5.12644C114.048 4.94213 113.907 4.75142 113.707 4.75142Z" fill="white"/>
<path d="M30.6006 13.2017L29.0162 13.2052C28.8216 13.2059 28.6519 13.3283 28.589 13.5077C28.3454 14.1972 27.976 14.7935 27.4793 15.2959C26.9094 15.8617 26.2123 16.2395 25.3864 16.4295C24.6132 16.5982 23.8678 16.5811 23.1502 16.3783C22.4421 16.1733 21.8137 15.8225 21.2666 15.3258C20.8482 14.9408 20.5036 14.489 20.233 13.9716C20.0998 13.7183 20.2447 13.4095 20.5299 13.344L29.9064 11.1835C30.6519 11.012 31.1485 10.3033 30.9189 9.59095C30.7221 8.98394 30.4617 8.41608 30.1369 7.88878C29.6014 7.00211 28.9335 6.26915 28.1333 5.68919C27.3418 5.10638 26.4618 4.71499 25.4925 4.51361C24.5306 4.30155 23.5306 4.31436 22.4941 4.55346C21.5497 4.77121 20.704 5.15975 19.9586 5.71836C19.2132 6.27698 18.6032 6.95514 18.1291 7.75357C17.6624 8.54061 17.3545 9.40451 17.2052 10.3445C17.0538 11.276 17.0984 12.2332 17.3376 13.2159C17.6536 14.5117 18.2491 15.6247 19.1247 16.5555C20.0076 17.4749 21.0449 18.1324 22.2358 18.5281C23.4362 18.9209 24.6688 18.9721 25.9351 18.6804V18.6818C27.311 18.3644 28.4624 17.7026 29.39 16.6964C30.1837 15.8254 30.7331 14.8441 31.0381 13.7517C31.1156 13.4735 30.8962 13.2009 30.6006 13.2017ZM19.4663 11.5749C19.38 10.7829 19.5022 10.1695 19.7648 9.45788C20.0347 8.73488 20.4458 8.11649 20.9988 7.602C21.5519 7.0875 22.2139 6.74166 22.9842 6.56376C23.7544 6.38585 24.5116 6.40934 25.254 6.63492C25.9973 6.85979 26.6556 7.23694 27.2298 7.76496C27.8019 8.28443 28.1823 8.7726 28.4383 9.50627L19.4663 11.5735V11.5749Z" fill="white"/>
<path d="M74.8751 4.75H73.0851C72.9235 4.75 72.7925 4.87744 72.7925 5.03464V18.2407C72.7925 18.3979 72.9235 18.5254 73.0851 18.5254H74.8751C75.0367 18.5254 75.1677 18.3979 75.1677 18.2407V5.03464C75.1677 4.87744 75.0367 4.75 74.8751 4.75Z" fill="white"/>
<path d="M52.7338 5.34201C51.6688 4.69018 50.4852 4.36426 49.1845 4.36426C48.2131 4.36426 47.2987 4.55283 46.4406 4.92928C45.5833 5.30572 44.8291 5.82946 44.1781 6.4998C43.5373 7.16089 43.0325 7.93227 42.6653 8.81396C42.2974 9.68639 42.1138 10.6271 42.1138 11.6376C42.1138 12.9698 42.4298 14.1859 43.0611 15.2882C43.7019 16.3812 44.5556 17.2537 45.6206 17.9055C46.6952 18.5573 47.8832 18.8832 49.1845 18.8832C50.1648 18.8825 51.0792 18.694 51.9277 18.3175C52.7858 17.9411 53.5356 17.4223 54.1764 16.7612C54.8267 16.0909 55.3358 15.3195 55.7038 14.4471C56.0717 13.5746 56.2553 12.6382 56.2553 11.6369C56.2553 10.2962 55.9349 9.07512 55.2934 7.97283C54.6621 6.87126 53.8092 5.99385 52.7338 5.34201ZM53.2576 14.0891C52.8516 14.8335 52.2913 15.4348 51.5744 15.8938C50.867 16.3442 50.0704 16.5691 49.1845 16.5691C48.336 16.5684 47.5533 16.3528 46.8371 15.9208C46.1203 15.4803 45.5504 14.8876 45.1261 14.1439C44.7019 13.391 44.4897 12.5279 44.4897 11.6369C44.4897 10.746 44.6967 9.92407 45.1115 9.17119C45.5263 8.4183 46.0873 7.81628 46.7947 7.36654C47.5013 6.90755 48.3075 6.6777 49.1845 6.6777C50.0616 6.6777 50.8531 6.90328 51.5605 7.35302C52.2671 7.80276 52.8282 8.40478 53.243 9.15767C53.6672 9.91055 53.8794 10.7552 53.8794 11.6369C53.8794 12.5186 53.6724 13.3362 53.2576 14.0891Z" fill="white"/>
<path d="M70.1759 4.72314H68.1109C68.0187 4.72314 67.9361 4.77936 67.9046 4.86404L63.9764 15.403C63.9215 15.551 63.7057 15.551 63.6509 15.403L59.7227 4.86404C59.6912 4.77936 59.6085 4.72314 59.5164 4.72314H57.4521C57.2999 4.72314 57.1938 4.87045 57.2458 5.00992L61.7811 17.1351C62.0928 17.9698 62.9077 18.5255 63.8206 18.5255C64.7335 18.5255 65.5491 17.9691 65.8608 17.1329L70.3822 5.00921C70.4342 4.87045 70.3281 4.72314 70.1759 4.72314Z" fill="white"/>
<path d="M14.2966 4.27441H12.503C12.342 4.27441 12.2111 4.40179 12.2111 4.55835L12.2082 6.55086C11.7473 6.04846 11.2177 5.61509 10.6193 5.25217C9.55425 4.60033 8.3714 4.27441 7.07005 4.27441C6.09933 4.27441 5.18494 4.46299 4.32688 4.83943C3.46882 5.21587 2.71463 5.73962 2.06432 6.40996C1.42352 7.07104 0.919508 7.84243 0.551559 8.72411C0.183609 9.59655 0 10.5373 0 11.5478C0 12.8799 0.315281 14.0961 0.947306 15.1983C1.58811 16.2914 2.44178 17.1638 3.50686 17.8157C4.58145 18.4675 5.76942 18.7934 7.07078 18.7934H7.06931C8.05027 18.7934 8.96466 18.6041 9.81321 18.2277C10.6713 17.8512 11.4211 17.3325 12.0619 16.6714C12.1072 16.6244 12.1504 16.576 12.1943 16.5283L12.1913 18.7144C12.1913 18.8724 12.3223 18.9998 12.484 18.9998H14.3361C14.4978 18.9998 14.6287 18.8717 14.6287 18.7144L14.5892 4.55835C14.5885 4.40108 14.4576 4.27441 14.2966 4.27441ZM11.1438 13.9993C10.7378 14.7436 10.1768 15.3449 9.46062 15.8039C8.75398 16.2544 7.95664 16.4792 7.07078 16.4792H7.07005C6.22149 16.4785 5.43878 16.2629 4.72263 15.831C4.00648 15.3905 3.4359 14.7977 3.01163 14.0541C2.58735 13.3012 2.37521 12.438 2.37521 11.5471C2.37521 10.6561 2.58296 9.83423 2.99773 9.08134C3.41323 8.32846 3.97356 7.72644 4.68093 7.2767C5.38757 6.81771 6.1937 6.58786 7.07078 6.58786C7.94786 6.58786 8.73935 6.81344 9.44672 7.26318C10.1541 7.71363 10.7152 8.31494 11.1299 9.06782C11.5542 9.82071 11.7663 10.6654 11.7663 11.5471C11.7663 12.4288 11.5586 13.2464 11.1438 13.9993Z" fill="white"/>
<path d="M91.1922 13.3022L89.6077 13.3058C89.4132 13.3065 89.2435 13.4289 89.1805 13.6082C88.937 14.2978 88.5675 14.8941 88.0708 15.3965C87.501 15.9622 86.8039 16.3401 85.978 16.5301C85.2048 16.6988 84.4594 16.6817 83.7418 16.4789C83.0337 16.2739 82.4053 15.9231 81.8581 15.4264C81.4397 15.0414 81.0952 14.5895 80.8245 14.0722C80.6914 13.8189 80.8362 13.51 81.1215 13.4446L90.498 11.2841C91.2434 11.1126 91.7401 10.4039 91.5104 9.69153C91.3136 9.08453 91.0532 8.51666 90.7284 7.98936C90.193 7.10269 89.5251 6.36974 88.7248 5.78977C87.9333 5.20696 87.0533 4.81558 86.0841 4.61419C85.1221 4.40213 84.1222 4.41494 83.0856 4.65404C82.1412 4.8718 81.2956 5.26033 80.5502 5.81895C79.8048 6.37756 79.1947 7.05573 78.7207 7.85416C78.254 8.6412 77.946 9.50509 77.7968 10.4451C77.6454 11.3766 77.69 12.3337 77.9292 13.3165C78.2452 14.6123 78.8407 15.7253 79.7163 16.6561C80.5992 17.5755 81.6365 18.233 82.8274 18.6287C84.0278 19.0215 85.2604 19.0727 86.5266 18.7809V18.7824C87.9026 18.465 89.054 17.8032 89.9815 16.797C90.7752 15.926 91.3246 14.9446 91.6296 13.8523C91.7072 13.5741 91.4877 13.3015 91.1922 13.3022ZM80.0579 11.6755C79.9716 10.8835 80.0937 10.2701 80.3563 9.55846C80.6263 8.83547 81.0374 8.21708 81.5904 7.70258C82.1434 7.18809 82.8054 6.84225 83.5757 6.66434C84.346 6.48644 85.1031 6.50992 85.8456 6.7355C86.5888 6.96037 87.2472 7.33753 87.8214 7.86554C88.3934 8.38502 88.7738 8.87318 89.0299 9.60685L80.0579 11.6741V11.6755Z" fill="white"/>
<path d="M73.9762 0C73.1679 0 72.5132 0.638315 72.5132 1.42536C72.5132 2.2124 73.1686 2.85071 73.9762 2.85071C74.7838 2.85071 75.4385 2.2124 75.4385 1.42536C75.4385 0.638315 74.7845 0 73.9762 0Z" fill="white"/>
</mask>
<g mask="url(#mask0_8655_638)">
<rect width="114" height="19" fill="url(#paint0_linear_8655_638)"/>
</g>
</g>
<defs>
<linearGradient id="paint0_linear_8655_638" x1="1.5" y1="-5.92125e-07" x2="114" y2="19" gradientUnits="userSpaceOnUse">
<stop stop-color="#604C93"/>
<stop offset="0.532326" stop-color="#A54896"/>
<stop offset="1" stop-color="#C8AC4C"/>
</linearGradient>
<clipPath id="clip0_8655_638">
<rect width="114" height="19" fill="white"/>
</clipPath>
</defs>
</svg>
