<svg width="200" height="40" viewBox="0 0 200 40" fill="none" xmlns="http://www.w3.org/2000/svg">
<path fill-rule="evenodd" clip-rule="evenodd" d="M0 26.123C0 27.2382 0.826022 28.1055 1.88805 28.1055H3.42209C6.37217 35.1678 12.9803 40 20.7686 40C28.4388 40 35.0469 35.1678 37.997 28.1055H39.6491C40.5931 28.1055 41.5371 27.2382 41.5371 26.123V14.2285C41.5371 13.2373 40.5931 12.2461 39.6491 12.2461H37.997C35.0469 5.30762 28.4388 0.351562 20.7686 0.351562C12.9803 0.351562 6.37217 5.30762 3.42209 12.2461H1.88805C0.826022 12.2461 0 13.2373 0 14.2285V26.123ZM6.60818 20.1758V17.2021C6.60818 14.4763 9.08624 12.2461 12.2723 12.2461H12.8135L13.2303 10.933C13.6172 9.53123 14.798 8.55078 16.1947 8.55078C17.6325 8.55078 18.8417 9.58996 19.1912 11.0582C19.1909 11.057 19.1908 11.0564 19.1908 11.0564C19.1908 11.0563 19.1913 11.0581 19.1924 11.0619L19.1924 11.062C19.1977 11.0802 19.216 11.1443 19.2567 11.2705C19.3045 11.4191 19.3682 11.6075 19.4448 11.8275C19.4908 11.96 19.5404 12.1005 19.5923 12.2461H29.2648C32.3329 12.2461 34.9289 14.4763 34.9289 17.2021V20.1758C34.9289 26.7426 29.8548 32.0703 23.6006 32.0703H17.9365C11.6823 32.0703 6.60818 26.7426 6.60818 20.1758ZM16.9961 12.2461C16.9878 12.2209 16.9796 12.1962 16.9717 12.172C16.9563 12.1251 16.9418 12.0802 16.9283 12.0375C16.8804 11.8867 16.8444 11.7642 16.8243 11.6796C16.6444 10.924 15.7449 10.924 15.565 11.6796L15.3852 12.2461H16.9961Z" fill="white"/>
<path d="M14.1249 20.7469L9.62757 19.2356C8.908 19.0467 8.908 18.1021 9.62757 17.9132L14.1249 16.213L15.5641 11.679C15.744 10.9234 16.6435 10.9234 16.8234 11.679C17.0033 12.4347 18.4424 16.213 18.4424 16.213L22.7599 17.9132C23.4795 18.1021 23.4795 19.0467 22.7599 19.2356L18.4424 20.7469L16.8234 25.4698C16.6435 26.2254 15.744 26.2254 15.5641 25.4698L14.1249 20.7469Z" fill="white"/>
<path d="M55.6312 15.6323H51.0596C51.2819 12.1141 53.5359 8.96107 58.1392 8.96107H60.5202C65.2505 8.96107 67.5998 12.5788 67.5998 16.1633V30.07H56.3296C52.774 30.07 50.8691 27.1493 50.8691 23.6975C50.8691 20.2125 52.8375 17.5905 56.2344 17.5905H63.0283V17.159C63.0283 15.1676 62.6473 13.6741 59.8218 13.6741H58.8376C56.6788 13.6741 55.9804 14.3047 55.6312 15.6323ZM55.1232 23.6975C55.1232 25.0915 55.8217 25.7885 56.4884 25.7885H63.0283V21.5733H56.4884C55.8217 21.5733 55.1232 22.2703 55.1232 23.6975ZM70.3449 22.9009V16.462C70.3449 12.4128 73.6149 8.96107 76.8531 8.96107H81.3612C85.4883 8.96107 87.8693 12.9771 87.8693 16.2961V21.6397H75.0117V22.7682C75.0117 24.7596 76.2181 25.4897 77.9325 25.4897H87.1709V30.1364H76.8848C73.2974 30.1364 70.3449 27.0497 70.3449 22.9009ZM75.0752 17.4909V17.7233H83.266V17.4909C83.266 15.4 82.0913 13.7736 80.3452 13.7736H77.869C76.1864 13.7736 75.0752 15.5327 75.0752 17.4909ZM95.8008 13.2758C97.3247 10.687 100.912 9.35935 104.277 9.35935H104.817V14.5038H104.277C100.436 14.5038 95.8008 18.0884 95.8008 21.2746V30.07H90.88V8.79512H95.8008V13.2758ZM114.602 8.96107H116.221C120.856 8.96107 123.682 11.9814 123.682 16.6612V22.3367C123.682 27.0165 120.856 30.07 116.221 30.07H114.602C109.999 30.07 107.173 27.0165 107.173 22.3367V16.6612C107.173 11.9814 109.999 8.96107 114.602 8.96107ZM116.221 13.7073H114.602C112.951 13.7073 111.682 15.0017 111.682 16.7939V22.2039C111.682 23.9962 112.951 25.2906 114.602 25.2906H116.221C117.904 25.2906 119.142 23.9962 119.142 22.2039V16.7939C119.142 15.0017 117.904 13.7073 116.221 13.7073ZM141.928 8.96107L135.991 30.07H131.546L125.419 8.96107H129.832L133.705 22.3367L137.483 8.96107H141.928ZM149.12 8.96107V30.07H144.453V8.96107H149.12ZM149.12 1.8252V6.67095H144.453V1.8252H149.12ZM152.131 22.9009V16.462C152.131 12.4128 155.401 8.96107 158.639 8.96107H163.147C167.274 8.96107 169.655 12.9771 169.655 16.2961V21.6397H156.798V22.7682C156.798 24.7596 158.004 25.4897 159.718 25.4897H168.957V30.1364H158.671C155.083 30.1364 152.131 27.0497 152.131 22.9009ZM156.861 17.4909V17.7233H165.052V17.4909C165.052 15.4 163.877 13.7736 162.131 13.7736H159.655C157.972 13.7736 156.861 15.5327 156.861 17.4909ZM200 8.96107L194.095 30.07H189.619L185.746 16.7607L182 30.07H177.555L171.428 8.96107H175.841L179.714 22.3367L183.492 8.96107H187.936L191.809 22.2703L195.587 8.96107H200Z" fill="white"/>
</svg>
